<svg viewBox="0 0 20 20" xmlns="http://www.w3.org/2000/svg" xmlns:xlink="http://www.w3.org/1999/xlink" width="20.000000" height="20.000000" fill="none" customFrame="#000000">
	<g id="Dark Mode Icon Container">
		<rect id="Rectangle" width="20.000000" height="20.000000" x="0.000000" y="0.000000" fill="rgb(215.985,215.985,215.985)" fill-opacity="0" />
		<rect id="Rectangle" width="20.000000" height="20.000000" x="0.000000" y="0.000000" stroke="rgb(150.96,150.96,150.96)" stroke-opacity="0" stroke-width="0" />
		<path id="Path" d="M13.5532 13.815C9.66857 13.815 6.51929 10.9278 6.51929 7.36821C6.51929 6.0253 6.96679 4.78158 7.73143 3.75C4.69036 4.69515 2.5 7.33122 2.5 10.4381C2.5 14.3385 5.94929 17.5 10.2036 17.5C13.5929 17.5 16.4696 15.4932 17.5 12.7045C16.375 13.4048 15.0161 13.815 13.5532 13.815Z" fill="rgb(255,255,255)" fill-rule="evenodd" />
		<path id="Path" d="M6.51929 7.36821C6.51929 6.0253 6.96679 4.78158 7.73143 3.75C4.69036 4.69515 2.5 7.33122 2.5 10.4381C2.5 14.3385 5.94929 17.5 10.2036 17.5C13.5929 17.5 16.4696 15.4932 17.5 12.7045C16.375 13.4048 15.0161 13.815 13.5532 13.815C9.66857 13.815 6.51929 10.9278 6.51929 7.36821Z" fill-rule="evenodd" stroke="rgb(17,21,23)" stroke-width="1.25" />
	</g>
</svg>
