<svg viewBox="0 0 17.5 17.5" xmlns="http://www.w3.org/2000/svg" xmlns:xlink="http://www.w3.org/1999/xlink" width="17.500000" height="17.500000" fill="none" customFrame="#000000">
	<g id="search">
		<path id="Shape" d="M12.5 11L11.7 11L11.4 10.7C12.4 9.6 13 8.1 13 6.5C13 2.9 10.1 0 6.5 0C2.9 0 0 2.9 0 6.5C0 10.1 2.9 13 6.5 13C8.1 13 9.6 12.4 10.7 11.4L11 11.7L11 12.5L16 17.5L17.5 16L12.5 11ZM2 6.5C2 9 4 11 6.5 11C9 11 11 9 11 6.5C11 4 9 2 6.5 2C4 2 2 4 2 6.5Z" fill="rgb(127.778,127.778,127.778)" fill-rule="evenodd" />
	</g>
</svg>
